<?xml version="1.0"?>
<svg xmlns="http://www.w3.org/2000/svg" xmlns:xlink="http://www.w3.org/1999/xlink" xmlns:svgjs="http://svgjs.com/svgjs" version="1.1" width="512" height="512" x="0" y="0" viewBox="0 0 509.702 509.702" style="enable-background:new 0 0 512 512" xml:space="preserve" class=""><g><g xmlns="http://www.w3.org/2000/svg"><g><g><g><g><path d="m352.699 119.022-21.449-21.449 90.039-90.038 10.252.118 26.87 26.869-21.096 21.096-10.606-10.606z" fill="#c8d1da" data-original="#c8d1da" style=""/></g><g><g><path d="m346.962 81.861 74.327-74.326-90.039 90.038 21.449 21.449 15.712-15.712z" fill="#92a2b5" data-original="#92a2b5" style=""/></g></g><g><path d="m426.709 45.012-274.233 276.535 42.427 42.427 274.233-276.536z" fill="#dedede" data-original="#e46a4a" style="" class=""/></g><g><path d="m193.903 331.975-25.494-26.495-15.933 16.067 42.427 42.428 274.233-276.537-15.933-15.933z" fill="#f2f1f0" data-original="#be310c" style="" class=""/></g><g><path d="m495.063 28.984-10.606-10.607-9.9-.001-37.242 37.242 21.214 21.214 37.242-37.242z" fill="#9eb6f4" data-original="#9eb6f4" style=""/></g><g><path d="m444.453 42.85h23.687v30.001h-23.687z" fill="#6e91ef" transform="matrix(.707 -.707 .707 .707 92.74 339.595)" data-original="#6e91ef" style=""/></g><g><path d="m41.109 367.677h155.328v60.001h-155.328z" fill="#9eb6f4" transform="matrix(.707 -.707 .707 .707 -246.413 200.462)" data-original="#9eb6f4" style=""/></g><g><path d="m85.07 443.142-27.094-27.094-15.333 15.333 42.427 42.427 109.833-109.833-15.333-15.334z" fill="#6e91ef" data-original="#6e91ef" style=""/></g><g><path d="m42.643 431.381-27.587 67.183 2.337 2.337 67.677-27.093z" fill="#c8d1da" data-original="#c8d1da" style=""/></g><g><path d="m25.45 473.252-10.394 25.312 2.337 2.337 67.677-27.093-17.441-17.441z" fill="#92a2b5" data-original="#92a2b5" style=""/></g><g><path d="m419.327 79.82h15v15h-15z" fill="#ffffff" transform="matrix(.707 -.707 .707 .707 63.248 327.355)" data-original="#ffffff" style=""/></g><g><path d="m398.114 101.032h15v15.001h-15z" fill="#ffffff" transform="matrix(.707 -.707 .707 .707 42.057 318.601)" data-original="#ffffff" style=""/></g><g><path d="m376.901 122.246h15v15h-15z" fill="#ffffff" transform="matrix(.707 -.707 .707 .707 20.861 309.848)" data-original="#ffffff" style=""/></g></g></g></g><g><path d="m282.099 177.55h15v15.001h-15z" transform="matrix(.707 -.707 .707 .707 -46.029 258.977)" fill="#000000" data-original="#000000" style=""/><path d="m503.481 42.486-1.121-16.813-14.796-14.796h-16.114l-13.039 13.039-23.728-23.728-16.466-.188-97.573 97.573 22.395 22.395-42.896 43.932 10.732 10.479 115.898-118.697 31.772 31.772-263.986 265.569-31.32-31.32 115.746-115.433-10.592-10.621-231.046 230.421-1.069 1.065-30.057 73.2 9.366 9.366 73.709-29.508 390.431-392.77-10.59-10.59zm-319.497 321.176-98.93 99.523-31.797-31.797 99.361-99.092zm-138.681 80.986 26.423 26.423-44.604 17.856zm432.36-418.771h3.688l6.417 6.417.293 4.399-29.532 29.532-10.606-10.606zm-51.017 8.465-73.127 74.893-11.662-11.662 82.503-82.503 4.04.047 19.405 19.405-10.489 10.489z" fill="#000000" data-original="#000000" style=""/></g></g></g></svg>
