<svg id="Capa_1" enable-background="new 0 0 511.99 511.99" height="512" viewBox="0 0 511.99 511.99" width="512" xmlns="http://www.w3.org/2000/svg"><g><path d="m344.374 133.999-104.88-28.102c-1.247-.334-2.528.406-2.862 1.652l-10.028 37.423c-.334 1.247.406 2.528 1.652 2.862l104.88 28.102c1.247.334 2.528-.406 2.862-1.652l10.028-37.423c.335-1.247-.405-2.528-1.652-2.862z" fill="#86a0af"/><path d="m344.374 133.999-40.063-10.735-2.207 8.237c-3.706 13.83-17.921 22.037-31.751 18.332l-42.033-11.263-1.716 6.403c-.334 1.247.406 2.528 1.653 2.862l104.88 28.102c1.247.334 2.528-.406 2.862-1.652l10.028-37.423c.334-1.248-.406-2.529-1.653-2.863z" fill="#738b95"/><path d="m321.773 252.06c-1.562-16.741-.151-33.693 4.234-50.06l6.993-26.1-104.607-28.029-6.994 26.101c-4.386 16.367-11.64 31.753-21.362 45.47 33.448 29.248 78.145 41.224 121.736 32.618z" fill="#617881"/><path d="m7.814 79.845 6.776-25.289c1.391-5.193 6.864-8.146 11.968-6.459l14.267 4.715c64.384 21.278 129.365 40.704 194.864 58.254l-8.143 30.389c-65.498-17.55-131.487-33.217-197.884-46.982l-14.713-3.05c-5.263-1.092-8.526-6.386-7.135-11.578z" fill="#c17d4f"/><path d="m336.941 170.767 8.143-30.389 21.488 5.758c2.203.59 3.511 2.855 2.921 5.059l-6.005 22.41c-.59 2.203-2.855 3.511-5.059 2.921z" fill="#c17d4f"/><path d="m402.439 293.381c0-5.626-4.56-10.186-10.186-10.186h-244.046c-5.626 0-10.186 4.56-10.186 10.186v16.417h264.418z" fill="#ffc3ac"/><path d="m179.015 243.256c-.524.517-.49 1.372.073 1.846l4.273 3.602c19.727 16.631 42.741 28.296 67.16 34.491h77.551l-1.82-6.618c-2.216-8.058-3.708-16.262-4.479-24.518-43.591 8.606-88.288-3.37-121.735-32.618-4.798 6.768-10.196 13.131-16.148 19.004z" fill="#d0e2e7"/><path d="m326.251 276.578c-2.216-8.058-3.708-16.262-4.479-24.518-12.023 2.374-24.13 3.181-36.062 2.492.175.676.355 1.351.54 2.025.916 3.33-1.59 6.618-5.043 6.618h-49.558c-12.355 0-24.614-1.787-36.366-5.318 16.849 11.806 35.588 20.333 55.237 25.318h77.551z" fill="#b4d0d5"/><path d="m333 175.9-42.32-11.34-4.673 17.44c-4.386 16.367-5.796 33.319-4.234 50.06.706 7.565 2.019 15.087 3.938 22.492 11.932.688 24.039-.119 36.062-2.492-1.562-16.741-.151-33.693 4.234-50.06z" fill="#475959"/><path d="m45.743 464.361c-2.623 0-4.553-2.492-3.864-5.022 3.948-14.5 17.209-25.161 32.959-25.161 1.433 0 2.846.088 4.233.26 5.312.656 10.436-2.007 13.223-6.576 9.759-16.002 28.416-25.982 49.095-23.065 23.28 3.284 40.982 23.104 41.913 46.596.004.099.008.198.011.297.238 7.042 5.902 12.673 12.948 12.673h-150.518z" fill="#f4fbff"/><path d="m431.384 441.862c-15.956-20.942-24.597-46.541-24.597-72.869v-56.855c0-1.293-1.048-2.341-2.341-2.341h-268.432c-1.293 0-2.341 1.048-2.341 2.341v56.855c0 12.171-1.847 24.186-5.409 35.658 4.232-.514 8.631-.489 13.125.144 23.28 3.284 40.982 23.104 41.913 46.596.004.099.008.198.011.297.238 7.042 5.902 12.673 12.948 12.673h252.264z" fill="#c17d4f"/><path d="m431.384 441.862c-15.956-20.942-24.597-46.541-24.597-72.869v-56.855c0-1.293-1.048-2.341-2.341-2.341h-37.659v39.196c0 26.327 8.641 51.927 24.597 72.869 7.026 9.221.45 22.499-11.143 22.499h-197.729c.429 2.297.696 4.645.791 7.03.004.099.008.198.011.297.238 7.042 5.902 12.673 12.948 12.673h252.264z" fill="#b16e3d"/><path d="m503.185 456.79-3.65-3.65c-12.173-12.173-27.364-20.627-43.771-25.838-3.079-.978-5.911-2.684-8.238-5.01-10.139-10.138-22.691-17.309-36.306-20.952 4.07 14.569 10.878 28.334 20.164 40.522l17.142 22.499h51.524c3.95 0 5.929-4.777 3.135-7.571z" fill="#d3effb"/><path d="m178.331 394.168c3.81 0 7.071-2.891 7.455-6.762.602-6.071.906-12.266.906-18.412v-33.532c0-4.143-3.357-7.5-7.5-7.5s-7.5 3.357-7.5 7.5v33.532c0 5.654-.28 11.352-.834 16.934-.437 4.414 3.031 8.24 7.473 8.24z"/><path d="m224.588 440.427c2.709-11.424 4.735-24.023 6.024-37.448.396-4.123-2.626-7.787-6.749-8.183-4.146-.395-7.787 2.627-8.183 6.749-1.223 12.744-3.137 24.662-5.688 35.421-.955 4.03 1.537 8.072 5.567 9.028 4.036.956 8.073-1.54 9.029-5.567z"/><path d="m270.23 384.906c4.143 0 7.5-3.357 7.5-7.5v-41.944c0-4.143-3.357-7.5-7.5-7.5s-7.5 3.357-7.5 7.5v41.944c0 4.143 3.358 7.5 7.5 7.5z"/><path d="m262.73 438.697c0 4.143 3.357 7.5 7.5 7.5s7.5-3.357 7.5-7.5v-25.849c0-4.143-3.357-7.5-7.5-7.5s-7.5 3.357-7.5 7.5z"/><path d="m315.749 327.962c-4.143 0-7.5 3.357-7.5 7.5v33.532c0 15.559.971 30.793 2.884 45.281.499 3.773 3.721 6.519 7.426 6.519 4.565 0 8.035-4.012 7.445-8.483-1.828-13.839-2.755-28.413-2.755-43.316v-33.532c0-4.144-3.358-7.501-7.5-7.501z"/><path d="m379.327 445.473c3.742-1.775 5.337-6.248 3.562-9.991-4.049-8.534-7.298-17.885-9.656-27.791-.959-4.028-4.999-6.525-9.033-5.559-4.029.959-6.519 5.003-5.559 9.033 2.601 10.922 6.198 21.267 10.695 30.746 1.781 3.754 6.258 5.333 9.991 3.562z"/><path d="m504.839 447.837c-12.462-12.462-28.21-21.775-46.806-27.683-1.953-.62-3.753-1.715-5.203-3.166-9.913-9.912-22.073-17.332-35.385-21.628-2.081-8.611-3.158-17.471-3.158-26.367v-56.854c0-3.393-1.727-6.391-4.348-8.161v-10.596c0-9.752-7.935-17.687-17.687-17.687h-15.984c-4.143 0-7.5 3.357-7.5 7.5s3.357 7.5 7.5 7.5h15.984c1.481 0 2.687 1.205 2.687 2.687v8.916h-249.418v-8.916c0-1.481 1.205-2.687 2.686-2.687h193.062c4.143 0 7.5-3.357 7.5-7.5s-3.357-7.5-7.5-7.5h-7.482l-.304-1.105c-6.226-22.658-6.564-47.014-.231-70.648l5.911-22.059c.876-.578 1.662-1.297 2.32-2.133l15.008 4.022c6.182 1.655 12.579-2.022 14.242-8.225l6.006-22.412c1.657-6.192-2.031-12.581-8.225-14.242l-15.006-4.021c-.543-3.782-3.276-7.068-7.193-8.117l.001.001-104.88-28.103c-3.998-1.073-7.98.484-10.289 3.426-62.937-16.996-126.14-35.955-187.967-56.389l-14.269-4.715c-4.382-1.45-9.228-1.021-13.291 1.171-4.062 2.193-7.078 6.008-8.273 10.468l-6.777 25.289c-1.195 4.459-.492 9.271 1.931 13.202 2.422 3.931 6.404 6.724 10.926 7.661l14.714 3.05c38.443 7.971 77.272 16.7 115.408 25.946 4.065.983 8.089-1.532 9.057-5.521.976-4.025-1.496-8.08-5.521-9.057-38.298-9.285-77.292-18.052-115.898-26.056l-14.713-3.05c-.646-.134-1.011-.532-1.201-.843-.191-.31-.384-.813-.213-1.45l6.776-25.289c.171-.638.589-.978.909-1.15.32-.174.833-.338 1.461-.129l14.268 4.715c61.851 20.441 125.072 39.413 188.034 56.429l-4.265 15.916c-13.557-3.602-27.29-7.163-40.925-10.614-4.012-1.018-8.095 1.414-9.11 5.431-1.017 4.016 1.415 8.095 5.431 9.11 13.825 3.499 27.75 7.111 41.488 10.764.152 1.052.473 2.064.942 3.001l-5.911 22.06c-6.419 23.952-19.058 44.822-35.533 61.076l-4.875 4.811c0 .001-.001.001-.001.001-1.746 1.724-2.692 4.117-2.597 6.569s1.226 4.766 3.104 6.351l4.272 3.601c9.724 8.198 20.378 15.334 31.668 21.257h-61.987c-9.752 0-17.686 7.935-17.686 17.687v10.596c-2.621 1.77-4.348 4.768-4.348 8.161v16.759c0 4.143 3.357 7.5 7.5 7.5s7.5-3.357 7.5-7.5v-11.6h76.038v37.5c0 4.143 3.357 7.5 7.5 7.5s7.5-3.357 7.5-7.5v-37.5h121.557v51.696c0 4.379.155 8.803.461 13.149.293 4.155 3.902 7.247 8.008 6.955 4.132-.291 7.246-3.876 6.955-8.008-.281-3.998-.424-8.067-.424-12.097v-51.696h30.519v51.695c0 11.37 1.552 22.688 4.539 33.607.088.513.228 1.012.417 1.491 4.364 15.234 11.529 29.656 21.175 42.316l7.965 10.454h-97.887l-4.278-16.845c-1.02-4.015-5.104-6.443-9.115-5.424-4.015 1.02-6.443 5.101-5.424 9.115l3.34 13.153h-123.759c-2.954 0-5.35-2.384-5.451-5.396l-.014-.371c-1.139-28.755-23.587-52.292-52.713-54.173 2.053-9.156 3.09-18.512 3.09-27.928v-5.097c0-4.143-3.357-7.5-7.5-7.5s-7.5 3.357-7.5 7.5v5.097c0 9.839-1.283 19.604-3.818 29.09-14.949 3.222-28.239 12.382-36.466 25.872-1.298 2.127-3.609 3.319-5.897 3.038-20.735-2.566-39.971 10.612-45.351 30.373-1.986 7.286 3.51 14.494 11.101 14.494h454.307c4.845 0 9.173-2.892 11.026-7.367 1.853-4.476.838-9.581-2.587-13.007zm-147.723-279.428-10.99-2.945 4.261-15.901 10.989 2.944zm-27.025-1.054-94.905-25.43 7.354-27.448 94.905 25.43zm-101.448 8.558 5.053-18.857 90.119 24.148-5.053 18.855c-4.014 14.976-5.67 30.34-4.944 45.767-37.173 5.524-74.345-4.439-103.777-27.807 8.343-12.996 14.59-27.129 18.602-42.106zm-39.481 67.866c4.308-4.25 8.374-8.785 12.147-13.542 32.441 25.504 73.199 36.392 113.963 30.536.744 5.02 1.743 10.009 2.988 14.922h-66.794c-22.728-5.908-44.226-16.922-62.304-31.916zm-138.396 213.082c4.896-10.264 15.89-16.403 27.385-14.98 8.118 1.011 16.186-2.966 20.546-10.114 8.671-14.219 25.023-21.889 41.645-19.544 19.634 2.769 34.742 19.261 35.476 39.72.058 1.703.315 3.351.751 4.919h-125.803zm401.474 0-14.89-19.544c-5.451-7.155-10.004-14.947-13.586-23.156 6.791 3.478 13.031 8.006 18.459 13.434 3.142 3.142 7.039 5.512 11.271 6.855 15.476 4.916 28.622 12.449 39.114 22.41h-40.368z"/></g></svg>